<svg xmlns="http://www.w3.org/2000/svg" xmlns:xlink="http://www.w3.org/1999/xlink" width="108.644" height="108.644" viewBox="0 0 28.745 28.745"><defs><linearGradient xlink:href="#a" id="b" x1="135.047" x2="67.686" y1="112.684" y2="219.144" gradientTransform="translate(11.353 31.75) scale(.22037)" gradientUnits="userSpaceOnUse"/><linearGradient id="a"><stop offset="0" style="stop-color:#0cc;stop-opacity:1"/><stop offset=".042" style="stop-color:#19f;stop-opacity:1"/><stop offset=".301" style="stop-color:#91f;stop-opacity:1"/><stop offset=".399" style="stop-color:#e0b;stop-opacity:1"/><stop offset=".734" style="stop-color:#f07;stop-opacity:1"/><stop offset="1" style="stop-color:#f01;stop-opacity:.99607843"/></linearGradient></defs><g transform="translate(-19.01 -53.936)"><ellipse cx="33.4" cy="68.604" rx="13.626" ry="13.207" style="fill:#fff"/><ellipse cx="43.528" cy="70.734" rx=".302" ry="1.214" style="fill:#7dd"/><ellipse cx="36.354" cy="68.02" rx="1.765" ry="1.768" style="fill:#7dd"/><path d="M26.958 66.444s5.836-3.964 9.132-2.862c3.297 1.103 5.175.577 5.036 1.903-.139 1.326-1.506 1.994-2.08 1.816-.575-.177-1.683-.49-1.678-.597.005-.106-.215-.406-.28-.39-.064.017-1.354-.168-1.39-.086-.993 2.316-7.269 2.798-7.565 2.723-1.773.8-3.548-2.427-1.175-2.507zm14.472-.854s4.643 1.182 2.769 3.908c-3.686-.156-2.77-3.907-2.77-3.907z" style="fill:#fed"/><path d="M34.718 71.275s8.226-4.917 8.298.273c2.199 1.593 1.94 2.413 1.94 2.413s-4.035 11.506-12.018 2.185c-7.983-9.321 1.78-4.871 1.78-4.871z" style="fill:#fed;fill-opacity:1"/><ellipse cx="28.68" cy="77.682" rx="4.118" ry="3.042" style="fill:#436"/><ellipse cx="36.282" cy="79.751" rx="4.652" ry="1.613" style="fill:#348"/><path d="M21.042 70.042c-1.055-7.163-.037-2.578-.02-2.91.07-1.424-.351-2.677 1.579-5.269.353-2.686 2.423-6.325 1.632-.718-.073.46-.058.588.052.442.085-.114.173-.41.195-.656a3.04 3.04 0 0 1 .249-.88c.081-1.751 2.523-3.59 2.544-1.415.004.36-.123.656-.617 1.47-.945 1.557-1.27 2.28-1.033 2.295.098.006.28-.233.553-.73.622-1.13 1.105-1.758 1.674-2.173.79-.576 1.101-.406.587.32-.25.35-.266.437-.106.55.105.075.184.298.177.496-.013.337-.059.402-.698.989-.854.783-1.137 1.179-1.473 2.063-.146.384-.471 1.06-.722 1.503-.336.59-.49 1.025-.58 1.64-.17 1.134-.072 2.546.186 2.73.111.079.212.2.224.267a.351.351 0 0 0 .124.196c.056.04.033-.18-.05-.489-.097-.356-.095-.61.006-.693.086-.073.155-.255.153-.404a.872.872 0 0 1 .115-.44c.065-.091.052-.255-.03-.364-.082-.108-.105-.259-.051-.335.053-.075.057-.166.008-.2-.049-.035-.06-.25-.024-.48.062-.403.077-.417.45-.452.335-.03.404-.085.515-.4.099-.282.187-.375.39-.41.144-.024.37-.186.501-.359.132-.172.287-.322.345-.332.058-.01.15-.176.206-.37.074-.255.16-.367.317-.409.173-.046.224-.195.262-.765.14-2.13.87-3.108 2.233-2.99.723.064 1.725.473 2.512 1.027.516.363.983.514 1.279.414.067-.023.195.044.284.15.14.167.178.153.296-.112.179-.4.357-.373.652.1.267.427.448.595.459.425.004-.06.087-.144.185-.185.14-.06.212-.017.337.2.156.267.163.265.249-.064.049-.186.172-.394.275-.462.164-.11.261-.06.82.425.348.303.676.616.73.697.066.099.148.077.25-.067.155-.219.329-.116.635.377.091.148.151.143.268-.021.09-.127.236-.18.364-.13.14.052.242.009.292-.125.151-.399.385-.177.55.52.184.781.31.956.44.612.119-.313.34-.271.419.08.035.16.134.295.22.3.085.006.245.154.356.33.17.27.245.315.485.287.265-.032.288-.007.34.363.039.287.127.425.32.5.19.074.236.144.162.248-.11.155.235.355.584.339.099-.005.208.057.242.138.045.107.012.144-.121.135-.235-.015-.205.166.063.385.115.094.164.213.11.264-.064.06.061.198.351.388.581.38.615.737.151 1.577-.366.663-.37.835-.026 1.235.166.195.081.226.038.393-2.751 12.78-14.552 9.646-16.55 9.163 0 0-6.839-3.061-7.894-10.224zm5.823 8.719c.364.23.775.43.913.443.137.012.197-.017.132-.066-.23-.17.021-.277.258-.11.132.094.271.128.309.075.037-.053.136-.048.219.01.098.07.11-.099.033-.481-.126-.626-.354-.896-.613-.724-.323.216-.883-.346-1.95-1.96-.229-.345.071.806.397 1.526.162.359.27.687.241.729-.03.042-.227-.004-.44-.101-.308-.142-.45-.31-.708-.834-.178-.36-.342-.63-.365-.597-.022.032.002.34.056.685.086.559.138.646.476.805.208.099.677.368 1.042.6zm2.885.379c.038-.053-.075-.192-.25-.308-.303-.201-.31-.2-.134.035.262.35.307.381.384.273zm3.982 1.521c.285.042.525.066.533.054.009-.012-.242-.208-.557-.434-.362-.26-.541-.343-.486-.227.314.66-.56-.223-.571-.033-.016.246.509.557 1.08.64zm1.839-.313c.044-.094.227-.13.425-.085.226.051 1.936.077 1.525-.226-.316-.234-1.196.08-2.124-.06l-.615-.093c.17.161.585.823.789.464zm4.465-1.505c-.085-.131-.213-.003-.456.1a4.78 4.78 0 0 1-1.068.26c-.684.08-.716.205-.046.172.228.014 1.839.155 1.57-.532zm-5.68-2.646c.041.029.004.1-.083.158-.218.145-.008.264.533.302.435.03.691.22.44.325-.186.079.009.164.377.167.238 0 .333.047.326.158-.007.106.214.166.683.186.38.016.954.073 1.274.126.32.052.835.06 1.144.015.31-.044.629-.036.71.018.08.055.362-.022.626-.17.535-.3.701-.283.481.048-.14.21-.137.215.073.088.12-.074.361-.277.534-.452.173-.175.355-.29.406-.254.05.036.06.111.02.167-.04.056-.008.106.071.11.08.006.176-.091.216-.215.079-.247.282-.189.228.065-.018.087.039.046.127-.09l1.73-2.343c-.134-.096-.433-.423-.357-.455.074-.032.201.022.283.119.274.327.362-.027-.298-.85l-.336-.418.333.141c.31.131.302.112-.093-.276-.234-.23-.485-.586-.558-.792-.094-.266-.158-.337-.222-.246-.05.07-.125-.191-.167-.579l-.078-.704-.104.684c-.085.562-.06.716.146.863.443.313.619.937.419 1.477-.132.357-.242.515-.406.583a.987.987 0 0 0-.361.285c-.185.261-1.771.194-2.174-.091-.319-.226-.425-.52-.268-.742.076-.107.11-.091.153.072.047.175.091.141.28-.218.246-.469.45-.462.49.016.019.232.025.222.05-.073.033-.41-.17-.59-.406-.36-.42.406-.805.276-.785-.265.01-.282.074-.394.329-.575.252-.179.307-.274.274-.468-.022-.133-.074-.196-.114-.14-.04.057-.116.073-.17.035-.052-.037-.025-.166.06-.287.136-.192.108-.251-.23-.484-.267-.184-.472-.239-.664-.178-.276.087-.277.086-.147-.108.113-.17.083-.177-.22-.049-.392.165-.594.116-.311-.075.162-.11.153-.122-.086-.106-.447.03-1.338.4-1.676.697l-.318.28.182-.376.183-.376-.383.19c-.21.105-.476.322-.589.481-.155.218-.231.251-.31.132-.086-.129-.178-.055-.507.41-.355.5-.426.551-.607.442-.391-.236-1.309-.235-1.989 0l-.684.237.556-.074c.54-.073.85 0 .727.173-.032.046-.162.092-.288.101-.126.01-.26.061-.297.114-.038.053.036.088.164.078.353-.026.307.148-.08.3-.188.074-.336.175-.327.226.008.05.127.035.265-.034.137-.068.29-.095.34-.06.05.036-.094.145-.32.243-.227.097-.442.22-.478.275-.036.054.034.053.154-.002.27-.123.384.08.142.252-.13.092-.083.107.188.057.493-.091.674.07.552.491-.066.23-.041.368.072.397.105.027.132.104.069.193-.205.289.36 1.011.763.976.134-.012.277.003.318.032zm2.94-.594c.376.072.713.152.749.177.035.026.458-.015.94-.091.481-.075.793-.082.693-.014-.1.068-.162.138-.136.156.095.068 1.272-.683 1.44-.919.096-.135.217-.216.27-.178.053.037.05.133-.006.212-.056.08-.059.175-.006.212.053.038.028.166-.056.286-.425.608-.027.851.639.391l.445-.308-.366.462-.367.462-.873-.114a11.822 11.822 0 0 0-1.59-.09A3.772 3.772 0 0 1 37.653 76c-1.005-.39-1.148-.55-.356-.396zm-1.147-1.396c.084-.109.123-.115.1-.017-.022.09-.084.17-.139.179-.054.01-.037-.064.04-.162zm.753.063c.004-.077.076-.137.158-.131.213.013.22.206.008.242-.118.02-.172-.017-.166-.111zm.718.495c.035-.05.126-.086.202-.082.076.005.09.077.032.159-.059.082-.15.12-.203.082-.052-.038-.067-.11-.031-.159zm1.113.06a.118.118 0 0 1 .164-.029.118.118 0 0 1 .028.165.118.118 0 0 1-.164.027.118.118 0 0 1-.028-.164zm-.777-.84a.219.219 0 0 1 .175-.19c.11-.02.16.026.154.134a.219.219 0 0 1-.175.19c-.109.019-.16-.026-.154-.134zm3.6 1.542a.118.118 0 0 1 .164-.028.118.118 0 0 1 .028.164.118.118 0 0 1-.164.028.118.118 0 0 1-.028-.164zm.635-.488c.057-.08.146-.114.199-.076.052.037.05.133-.007.212-.056.08-.145.114-.198.076-.053-.037-.05-.133.006-.212zm-9.836-3.11c-.023-.135-.824-.184-1.398-.086-.966.164-.771.285.35.219.583-.034 1.054-.094 1.048-.133zm-4.89-3.25c.357-.06.316-.19-.078-.246-.465-.065-.555-.116-.355-.2.102-.044.081-.081-.064-.118a1.703 1.703 0 0 1-.283-.094c-.038-.021-.009.06.065.18.195.32.49.517.715.479zm-3.953-3.106c-.024-.322.591-1.726.878-2.005.215-.208.22-.233.03-.148-.308.138-.837 1.127-.985 1.839-.063.305-.068.546-.011.537.057-.01.096-.11.088-.223zm4.467 2.479c.179-.075.247-.05.287.101.04.152.138.185.41.139.308-.053.333-.076.19-.178-.09-.065-.135-.16-.097-.214.037-.052.157-.033.265.044.293.208.888.26 1.266.112.184-.072.626-.087.984-.033.69.102 1.005-.033.517-.223-.202-.079-.255-.15-.187-.246.106-.149.38-.11.667.094.266.188.341 0 .109-.271-.238-.278-.143-.476.133-.28.273.194 1.255.276 1.299.11.02-.076.177-.11.35-.077.269.051.337.01.478-.297.126-.275.26-.385.583-.48.334-.1.376-.136.208-.179-.115-.03-.18-.095-.144-.147.036-.05.152-.031.258.044.106.075.222.094.258.043.036-.051-.028-.12-.144-.154-.187-.054-.183-.066.043-.11.305-.062 1.6.43 1.588.608-.004.068-.47-.06-.549-.116-.08-.057-.343-.08-.587-.05l-.442.053.475.043c.26.023.599.13.75.238.237.168.274.162.26-.037-.024-.302.167-.335.245-.042.09.34.18.12.192-.475l.01-.529.473.38c.324.261.465.451.449.605-.033.306.375.57.775.503.342-.059.71-.482.815-.939l.058-.248-.216.136c-.193.12-.2.1-.064-.19.152-.322.15-.327-.501-.798-.418-.302-.6-.394-.505-.254.207.302.075.44-.173.181-.298-.31-1.026-.506-1.081-.29-.033.13-.123.12-.344-.036-.319-.226-.517-.139-.285.126.16.183.114.175-.744-.122-.4-.138-.477-.136-.33.009.261.26.12.408-.183.193-.201-.143-.26-.133-.32.054-.06.184-.19.215-.64.153-.455-.063-.534-.043-.402.097.228.241.27.51.055.358-.093-.067-.173-.055-.178.025-.013.207-.727.58-1.105.578-.176 0-.357.052-.403.117-.149.209-.677-.186-.816-.61-.128-.392-.275-.422-.21-.044.055.325-.173.252-.31-.1-.13-.328-.13-.328-.192-.007-.052.273-.105.323-.345.33-.16.005-.232.047-.165.097.185.138.016.276-.239.194-.132-.042-.247-.002-.272.095-.072.28-.731.183-1.077-.158-.258-.254-.3-.265-.286-.077.009.122.12.295.245.384.126.089.201.2.168.248-.087.121-.54-.075-.777-.337-.144-.16-.181-.169-.134-.034.037.104.002.215-.076.248-.082.035-.074.108.02.175.243.172-.162.25-.918.178a7.935 7.935 0 0 0-1.038-.03l-.417.028.366.352c.233.224.55.406.873.5.278.082.481.184.45.227-.03.043-.16.045-.29.003-.13-.041-.263-.037-.296.01-.098.139.657.305.91.2zm4.236 2.727c.596.087.94.28.378.212-.512-.062-.456.103.06.175.226.032.415-.002.42-.074.004-.073.073-.087.152-.03.08.056.21.074.29.04.24-.102-.63-.45-1.278-.508-.526-.048-.722-.023-.587.073.029.02.283.07.565.111zm2.031 1.085c.218.09.314.08.294-.032-.019-.112-.175-.199-.48-.268-.464-.104-.696-.041-.336.091.11.04.345.135.522.209zm-10.868-8.102c-.094-.171-.211-.253-.387-.269-.209-.019-.186.023.136.247.338.234.37.237.251.022zm18.67 10.04c-.03-.149-.055-.143-.103.027a1.988 1.988 0 0 1-.163.39c-.056.093-.009.08.104-.027.112-.109.185-.284.163-.39zm-5.762-5.046c.451-.1 1.07-.677.747-.698-.076-.005-.184.056-.24.135-.214.302-.83.508-1.243.415-.54-.121-.6-.057-.11.118.206.074.587.087.846.03zm.074.456c.246.044.54.11.653.147.12.04.267-.025.355-.156l.15-.224-.241.155c-.132.085-.309.106-.393.046-.083-.06-.391-.109-.684-.11-.568-.002-.547.016.16.142zm-1.593-1.013c.015-.02-.022-.11-.082-.2-.062-.094-.112-.105-.117-.027-.008.131.144.305.2.227zm8.018 5.45c.048-.128.05-.226.006-.219-.09.015-.205.373-.136.421.023.017.081-.074.13-.202zm-.736-1.355c-.132-.147-.785-.256-1.072-.179-.11.03.112.11.493.179.38.068.641.068.58 0zM24.196 59.89a.12.12 0 0 0-.033-.168c-.056-.04-.106-.01-.11.066-.006.076.01.151.033.168.023.016.073-.013.11-.066zm12.982 9.168c-.011-.03-.055-.167-.097-.304-.066-.212-.093-.225-.188-.092-.068.096-.03.213.098.304.114.081.199.122.187.092zm4.016 2.6c.005-.075-.034-.168-.087-.205-.053-.038-.1-.006-.105.07a.26.26 0 0 0 .087.206c.053.037.1.006.105-.07zm.347-.173c.031-.243-.253-1.06-.406-1.168-.094-.067.205 1.287.302 1.364.04.031.087-.057.104-.196zm1.41 1.039c.036-.003-.048-.086-.185-.184-.138-.098-.31-.152-.384-.121-.12.05.387.322.57.305zm-1.083-1.294c-.04-.205-.084-.283-.099-.174-.046.348-.013.578.08.562.05-.009.059-.183.019-.388zm-5.597-3.934c.019-.148-.028-.273-.104-.278-.089-.005-.132.068-.121.207.024.326.187.377.225.071zm6.1 4.34c.005-.08-.036-.18-.093-.22-.063-.044-.095.016-.084.161.02.252.162.3.177.06zm-14.185-10.73c.025-.096-.008-.212-.073-.258-.092-.065-.111-.04-.085.113.018.109-.039.312-.127.451-.155.245-.153.247.04.062.11-.106.22-.272.245-.368zm9.367 6.724c.08-.566-.053-.507-.15.067-.042.252-.04.434.007.404.046-.031.11-.243.143-.471zm3.254 2.745c.005-.076-.035-.169-.088-.206-.052-.038-.1-.006-.104.07-.005.076.034.168.087.206.053.037.1.006.105-.07zm2.639.86c.037-.052.049-.109.025-.125-.023-.017-.1-.006-.17.024s-.081.086-.025.126c.056.04.132.029.17-.024zM26.922 59.128c.018-.203.003-.22-.088-.097-.118.16-.12.376-.004.357.038-.007.08-.124.092-.26zm17.724 11.909c.004-.069-.09-.161-.207-.206-.175-.066-.178-.134-.017-.36.156-.22.155-.31-.005-.423-.156-.111-.213-.094-.248.076a2.78 2.78 0 0 1-.215.546l-.168.327.426.082c.234.046.43.027.434-.042zM28.29 59.69c.086-.058.115-.135.064-.171-.051-.036-.14-.001-.195.078-.057.08-.086.156-.065.171.021.015.109-.02.196-.078zm3.016 1.925c.2.142.548.481.773.752.55.661.643.466.103-.215-.507-.638-1.185-1.023-1.71-.971l-.357.035.413.07c.228.037.577.186.778.329zm12.468 8.722c.017-.297-.244-.851-.339-.718-.03.044.018.206.109.362.09.156.142.368.116.473-.027.104-.016.184.024.177.04-.007.08-.14.09-.294zm-16.839-11.96c.006-.08-.13-.242-.3-.359l-.311-.212.25.36c.276.393.347.435.361.212zM42.653 68.82c-.054-.457.032-.456.569.004.565.485.923.539.916.137-.002-.123-.073-.244-.157-.27-.084-.025-.18-.148-.213-.274-.05-.187-.096-.215-.25-.154-.158.062-.191.025-.207-.229-.015-.238-.032-.258-.08-.097-.119.406-.314.179-.295-.344.01-.293.006-.705-.01-.915l-.029-.381-.146.329c-.146.33-.146.33-.178.001a1.115 1.115 0 0 0-.214-.537c-.152-.174-.195-.171-.255.017-.056.176-.119.192-.286.074-.207-.147-.212-.143-.175.165.02.174.095.34.165.37.07.03.155.317.189.639.055.524.231.926.253.577.019-.29.127-.036.22.517.101.593.244.883.183.371zm2.934-.197c.015-.021-.038-.084-.117-.14-.08-.057-.174-.06-.21-.01-.036.052.016.115.117.14.101.026.196.03.21.01z" style="fill:#000;stroke-width:.217567"/><path d="M33.383 53.936a14.373 14.373 0 0 0-14.372 14.372 14.373 14.373 0 0 0 14.372 14.373 14.373 14.373 0 0 0 14.373-14.373 14.373 14.373 0 0 0-14.373-14.372Zm0 1.99a12.382 12.382 0 0 1 12.382 12.382A12.382 12.382 0 0 1 33.383 80.69a12.382 12.382 0 0 1-12.381-12.382 12.382 12.382 0 0 1 12.381-12.381Z" style="opacity:1;fill:url(#b)"/><path d="M37.01 74.131c-5.074-3.005-5.16-2.91-5.16-2.91l5.105 3.016zm-.246-.427c-5.022-3.091-5.109-2.997-5.109-2.997l5.053 3.102zm-.554.413c-5.354-2.47-5.43-2.367-5.43-2.367l5.387 2.477zm-.485.105c-5.811-1.001-5.857-.882-5.857-.882l5.844 1zm.707.578c-5.87-.566-5.906-.443-5.906-.443l5.901.562zm1.81-.929c-4.901-3.279-4.991-3.188-4.991-3.188l4.93 3.29z" style="fill:#eee;"/></g></svg>
